# xmcd
#
# Track frame offsets:
#	150
#	7382
#	12771
#	25032
#	37025
#	51561
#	63029
#	72626
#	81841
#	96032
#	107243
#	117919
#
# Disc length: 1707 seconds
#
# Revision: 1
# Processed by: cddbd v1.5.2PL0 Copyright (c) Steve Scherf et al.
# Submitted via: audiograbber 1.83.01
#
DISCID=a106a90c
DTITLE=Leerlauf - Leerlauf
DYEAR=2007
DGENRE=
TTITLE0=Intro
TTITLE1=campus
TTITLE2=gibsy
TTITLE3=sunset
TTITLE4=dreaming
TTITLE5=deep nothing
TTITLE6=jam jam jam
TTITLE7=slow blues
TTITLE8=jam outtake
TTITLE9=basolo
TTITLE10=college
TTITLE11=sapiens
EXTD=Interpreten: Jan Herzog und Moritz Nitsch
EXTT0=
EXTT1=
EXTT2=
EXTT3=
EXTT4=
EXTT5=
EXTT6=
EXTT7=
EXTT8=
EXTT9=
EXTT10=
EXTT11=
PLAYORDER=
